<?xml version="1.0" standalone="no"?>
<!DOCTYPE svg PUBLIC "-//W3C//DTD SVG 20010904//EN"
 "http://www.w3.org/TR/2001/REC-SVG-20010904/DTD/svg10.dtd">
<svg version="1.0" xmlns="http://www.w3.org/2000/svg"
 width="506.000000pt" height="221.000000pt" viewBox="0 0 506.000000 221.000000"
 preserveAspectRatio="xMidYMid meet">

<g transform="translate(0.000000,221.000000) scale(0.100000,-0.100000)"
fill="white" stroke="none">
<path d="M335 2182 c-179 -61 -292 -195 -315 -373 -12 -96 -13 -1289 0 -1397
12 -103 43 -175 107 -243 63 -67 115 -102 194 -131 64 -23 65 -23 604 -23 500
0 545 1 607 19 48 13 79 29 103 53 l35 34 -22 40 c-12 21 -65 79 -118 128
l-97 90 -490 3 c-451 3 -491 4 -516 21 -16 10 -32 30 -38 44 -6 16 -9 262 -7
662 3 531 5 641 17 664 29 57 30 57 511 57 l441 0 80 -67 c43 -38 79 -71 79
-75 0 -3 -28 -33 -62 -65 -35 -32 -106 -100 -159 -151 -127 -123 -129 -128
-129 -396 0 -185 2 -204 20 -234 12 -19 185 -198 385 -398 302 -301 375 -369
427 -396 l63 -33 484 -3 c460 -3 488 -2 551 17 90 28 149 68 260 181 l96 97
104 -107 c188 -191 190 -192 754 -188 l411 3 86 42 c140 68 226 178 248 313
14 83 14 410 1 520 -20 163 -113 295 -258 363 l-67 32 -456 5 -456 5 -35 27
c-54 42 -72 97 -66 211 6 105 29 171 81 226 64 67 54 66 547 66 427 0 447 1
477 20 54 35 86 82 91 135 6 68 -12 114 -61 153 -84 68 -79 67 -575 67 -346 0
-459 -3 -498 -14 -93 -25 -174 -75 -262 -163 -123 -123 -166 -229 -179 -445
-9 -153 10 -306 48 -385 37 -78 145 -181 234 -223 118 -56 151 -60 597 -60
426 0 451 -2 462 -44 3 -11 6 -114 6 -227 0 -189 -2 -209 -19 -230 l-19 -24
-354 0 c-343 0 -354 1 -393 22 -22 11 -94 75 -160 140 -149 147 -169 158 -296
158 -90 0 -98 -2 -139 -30 -25 -16 -94 -79 -155 -139 -165 -163 -136 -155
-555 -155 -195 0 -368 5 -398 10 -52 10 -56 14 -317 277 -337 341 -325 325
-325 417 0 59 4 78 22 101 31 42 126 140 180 185 l46 40 121 -117 121 -116 0
-89 0 -89 -81 -87 c-76 -82 -79 -87 -62 -103 114 -105 265 -231 273 -228 24 8
214 227 233 268 19 42 20 59 14 277 l-5 232 -119 114 c-65 63 -143 136 -173
162 -30 27 -56 51 -58 55 -1 4 29 37 68 73 l70 67 376 0 c416 0 395 3 479 -70
25 -22 57 -40 69 -40 43 0 155 99 177 157 14 37 11 140 -5 171 -31 59 -123
116 -226 142 -31 7 -200 10 -530 8 l-485 -3 -60 -28 c-45 -20 -81 -49 -140
-112 l-80 -85 -85 85 c-57 57 -105 95 -146 115 l-61 30 -549 -1 c-490 0 -554
-2 -599 -17z"/>
</g>
</svg>
